<svg width="48" height="48" viewBox="0 0 48 48" fill="none" xmlns="http://www.w3.org/2000/svg">
<path d="M32.8883 35.8941C33.2544 36.1056 33.5717 36.1585 33.8279 36.0527L33.9378 35.9958C33.9378 35.9958 33.954 35.9835 33.9621 35.9754C34.2021 35.8127 34.3242 35.5117 34.3242 35.0765C34.3242 34.6087 34.1858 34.1368 33.9092 33.6649C33.6367 33.189 33.295 32.8351 32.8883 32.5992L31.4523 31.7734V28.4785L32.8883 29.3083C33.295 29.5402 33.6367 29.5808 33.9092 29.4222C34.1858 29.2676 34.3242 28.9544 34.3242 28.4866C34.3242 28.0188 34.1858 27.551 33.9092 27.0751C33.6367 26.6032 33.295 26.2493 32.8883 26.0134L31.4523 25.1836V21.8886C31.4523 21.7056 31.4401 21.5225 31.4157 21.3395C31.3262 20.6073 31.0577 19.8507 30.6103 19.0778C30.0489 18.1097 29.3737 17.3938 28.5845 16.9382L27.3886 16.2466L25.9527 15.4209L18.0611 10.8649L13.7574 8.37952L8.48959 5.34088C7.7818 4.9341 7.16759 4.83647 6.64285 5.048L6.46384 5.13749C5.90248 5.45885 5.62183 6.06902 5.62183 6.97613V30.0324C5.62183 30.9354 5.90248 31.8751 6.46384 32.8433C7.0252 33.8155 7.70044 34.5273 8.48959 34.9829L28.5845 46.5843C29.3737 47.0399 30.0489 47.105 30.6103 46.7877C31.1716 46.4663 31.4523 45.8521 31.4523 44.945V41.6541L32.8883 42.4799C33.295 42.7158 33.6367 42.7565 33.9092 42.5979C34.1858 42.4433 34.3242 42.1301 34.3242 41.6623C34.3242 41.4711 34.2998 41.284 34.255 41.0928C34.19 40.8121 34.0719 40.5313 33.9092 40.2507C33.6367 39.7788 33.295 39.4209 32.8883 39.189L31.4523 38.3591V35.0642L32.8883 35.8941ZM17.8171 33.7829C17.8171 34.2466 17.6828 34.5599 17.4062 34.7144C17.1296 34.8731 16.792 34.8324 16.3852 34.6005L11.3615 31.7002C10.9547 31.4642 10.613 31.1103 10.3364 30.6344C10.0639 30.1625 9.92555 29.6907 9.92555 29.2229V25.9321C9.92555 25.4643 10.0639 25.151 10.3364 24.9964C10.613 24.8378 10.9547 24.8785 11.3615 25.1104L13.794 26.5137L16.3852 28.0107C16.792 28.2466 17.1296 28.6005 17.4062 29.0765C17.6828 29.5483 17.8171 30.0202 17.8171 30.488V33.7829ZM17.8171 25.5456C17.8171 26.0134 17.6828 26.3266 17.4062 26.4812C17.1296 26.6399 16.792 26.5991 16.3852 26.3632L13.7574 24.85L11.3615 23.4669C10.9547 23.231 10.613 22.8771 10.3364 22.4012C10.0639 21.9252 9.92555 21.4575 9.92555 20.9897V12.7565C9.92555 12.2887 10.0639 11.9754 10.3364 11.8208C10.613 11.6622 10.9547 11.7029 11.3615 11.9388L13.7574 13.3219L16.3852 14.8392C16.792 15.0711 17.1296 15.4249 17.4062 15.9008C17.6828 16.3768 17.8171 16.8446 17.8171 17.3124V25.5456ZM27.1486 39.1687C27.1486 39.6324 27.0103 39.9456 26.7337 40.1002C26.4611 40.2588 26.1194 40.2181 25.7127 39.9863L20.6889 37.0859C20.2821 36.85 19.9405 36.4961 19.6679 36.0202C19.3913 35.5483 19.253 35.0764 19.253 34.6086V26.3754C19.253 25.9076 19.3913 25.5985 19.6679 25.4399C19.9405 25.2853 20.2821 25.3219 20.6889 25.5578L25.7127 28.4581C25.794 28.5069 25.8754 28.5558 25.9527 28.6168C26.2537 28.8405 26.5181 29.1456 26.7337 29.5198C27.0103 29.9958 27.1486 30.4677 27.1486 30.9314V39.1687ZM27.1486 25.9931C27.1486 26.4568 27.0103 26.77 26.7337 26.9286C26.5181 27.0507 26.2578 27.0547 25.9527 26.9286C25.8754 26.9002 25.794 26.8595 25.7127 26.8107L20.6889 23.9104C20.2821 23.6744 19.9405 23.3205 19.6679 22.8446C19.3913 22.3727 19.253 21.9008 19.253 21.433V18.1422C19.253 17.6744 19.3913 17.3612 19.6679 17.2066C19.9405 17.048 20.2821 17.0886 20.6889 17.3246L25.7127 20.2249C25.794 20.2738 25.8754 20.3226 25.9527 20.3836C26.2537 20.6073 26.5181 20.9083 26.7337 21.2866C27.0103 21.7625 27.1486 22.2303 27.1486 22.6981V25.9931Z" stroke="#121212" stroke-width="0.40678" stroke-linecap="round" stroke-linejoin="round"/>
<path d="M27.1485 22.6983V25.9932C27.1485 26.457 27.0102 26.7702 26.7336 26.9288C26.518 27.0509 26.2576 27.0549 25.9525 26.9288C25.8753 26.9004 25.7939 26.8597 25.7126 26.8109L20.6888 23.9105C20.282 23.6746 19.9404 23.3207 19.6678 22.8448C19.3912 22.3729 19.2529 21.901 19.2529 21.4332V18.1424C19.2529 17.6746 19.3912 17.3613 19.6678 17.2068C19.9404 17.0481 20.282 17.0888 20.6888 17.3248L25.7126 20.2251C25.7939 20.2739 25.8753 20.3227 25.9525 20.3838C26.2536 20.6075 26.518 20.9085 26.7336 21.2868C27.0102 21.7627 27.1485 22.2305 27.1485 22.6983Z" stroke="#121212" stroke-width="0.40678" stroke-linecap="round" stroke-linejoin="round"/>
<path d="M17.8171 30.4881V33.783C17.8171 34.2468 17.6828 34.56 17.4062 34.7146C17.1296 34.8732 16.792 34.8325 16.3852 34.6007L11.3615 31.7003C10.9547 31.4644 10.613 31.1105 10.3364 30.6346C10.0638 30.1627 9.92554 29.6908 9.92554 29.223V25.9322C9.92554 25.4644 10.0638 25.1512 10.3364 24.9966C10.613 24.8379 10.9547 24.8786 11.3615 25.1105L13.794 26.5139L16.3852 28.0108C16.792 28.2468 17.1296 28.6007 17.4062 29.0766C17.6828 29.5484 17.8171 30.0203 17.8171 30.4881Z" stroke="#121212" stroke-width="0.40678" stroke-linecap="round" stroke-linejoin="round"/>
<path d="M27.1485 30.9314V39.1687C27.1485 39.6324 27.0102 39.9456 26.7336 40.1002C26.4611 40.2589 26.1194 40.2181 25.7126 39.9863L20.6888 37.0859C20.282 36.85 19.9404 36.4961 19.6678 36.0202C19.3912 35.5483 19.2529 35.0765 19.2529 34.6087V26.3755C19.2529 25.9077 19.3912 25.5985 19.6678 25.4399C19.9404 25.2853 20.282 25.3219 20.6888 25.5578L25.7126 28.4582C25.7939 28.507 25.8753 28.5558 25.9525 28.6168C26.2536 28.8406 26.518 29.1456 26.7336 29.5198C27.0102 29.9958 27.1485 30.4677 27.1485 30.9314Z" stroke="#121212" stroke-width="0.40678" stroke-linecap="round" stroke-linejoin="round"/>
<path d="M33.9619 35.9756C33.9619 35.9756 33.9456 35.9919 33.9375 35.996L33.97 35.9797C33.97 35.9797 33.9659 35.9797 33.9619 35.9797V35.9756Z" stroke="#121212" stroke-width="0.40678" stroke-linecap="round" stroke-linejoin="round"/>
<path d="M17.8171 17.3125V25.5458C17.8171 26.0136 17.6828 26.3268 17.4062 26.4814C17.1296 26.64 16.792 26.5993 16.3852 26.3634L13.7574 24.8502L11.3615 23.4671C10.9547 23.2312 10.613 22.8773 10.3364 22.4014C10.0638 21.9255 9.92554 21.4577 9.92554 20.9899V12.7567C9.92554 12.2889 10.0638 11.9756 10.3364 11.821C10.613 11.6624 10.9547 11.7031 11.3615 11.939L13.7574 13.3221L16.3852 14.8394C16.792 15.0712 17.1296 15.4251 17.4062 15.9011C17.6828 16.377 17.8171 16.8447 17.8171 17.3125Z" stroke="#121212" stroke-width="0.40678" stroke-linecap="round" stroke-linejoin="round"/>
<path d="M39.5878 17.8209V21.1158L33.4739 24.1748L31.4522 25.1836V21.8887C31.4522 21.7056 31.44 21.5226 31.4156 21.3395C31.3261 20.6073 31.0576 19.8507 30.6101 19.0779C30.0488 18.1097 29.3735 17.3938 28.5844 16.9382L27.3885 16.2466L25.9525 15.4209L18.061 10.8649L13.7573 8.37951L8.48945 5.34091C7.78165 4.93413 7.16745 4.8365 6.6427 5.04803L14.5993 1.06971C15.1606 0.748359 15.8359 0.817511 16.625 1.2731L36.72 12.8704C37.5091 13.326 38.1844 14.0419 38.7457 15.0101C39.3071 15.9782 39.5878 16.9178 39.5878 17.8209Z" stroke="#121212" stroke-width="0.40678" stroke-linecap="round" stroke-linejoin="round"/>
<path d="M39.5879 26.583V27.7057L35.2841 29.8576L31.4523 31.7735V28.4786L32.8882 29.3084C33.295 29.5403 33.6366 29.5809 33.9092 29.4223L35.2841 28.7349L39.5879 26.583Z" stroke="#121212" stroke-width="0.40678" stroke-linecap="round" stroke-linejoin="round"/>
<path d="M39.5878 39.7583V40.8771C39.5878 41.7842 39.3071 42.3984 38.7457 42.7198L30.6101 46.7876C31.1715 46.4662 31.4522 45.852 31.4522 44.9449V41.654L32.8881 42.4798C33.2949 42.7157 33.6365 42.7564 33.9091 42.5977L35.4915 41.8086L39.5878 39.7583Z" stroke="#121212" stroke-width="0.40678" stroke-linecap="round" stroke-linejoin="round"/>
<path d="M42.4597 37.5946C42.4597 38.0624 42.3214 38.3756 42.0448 38.5302L41.9594 38.5708L39.5879 39.7587L35.4916 41.8089L33.9092 42.598C34.1858 42.4435 34.3241 42.1302 34.3241 41.6624C34.3241 41.4712 34.2997 41.2841 34.255 41.0929C34.1899 40.8123 34.0719 40.5315 33.9092 40.2508C33.6366 39.779 33.295 39.421 32.8882 39.1891L31.4523 38.3593L39.5879 34.2915L41.0238 35.1213C41.4306 35.3532 41.7722 35.7112 42.0448 36.183C42.3214 36.659 42.4597 37.1268 42.4597 37.5946Z" stroke="#121212" stroke-width="0.40678" stroke-linecap="round" stroke-linejoin="round"/>
<path d="M39.5879 33.1729V34.2915L31.4523 38.3593V35.0644L32.8882 35.8942C33.2543 36.1058 33.5716 36.1587 33.8279 36.0529L33.9377 35.9959L33.9702 35.9796H33.9743L35.2679 35.3329L39.5879 33.1729Z" stroke="#121212" stroke-width="0.40678" stroke-linecap="round" stroke-linejoin="round"/>
<path d="M42.4597 24.4188C42.4597 24.8866 42.3214 25.1997 42.0448 25.3543L41.9594 25.395L39.5879 26.5828L35.2841 28.7347L33.9092 29.4221C34.1858 29.2675 34.3241 28.9544 34.3241 28.4866C34.3241 28.0188 34.1858 27.5509 33.9092 27.075C33.6366 26.6031 33.295 26.2492 32.8882 26.0133L31.4523 25.1835L33.474 24.1747L39.5879 21.1157L41.0238 21.9455C41.4306 22.1814 41.7722 22.5353 42.0448 23.0072C42.3214 23.4831 42.4597 23.955 42.4597 24.4188Z" stroke="#121212" stroke-width="0.40678" stroke-linecap="round" stroke-linejoin="round"/>
<path d="M42.4597 31.0089C42.4597 31.4767 42.3214 31.7859 42.0448 31.9445L41.9594 31.9852L39.5879 33.173L35.2679 35.333L33.9743 35.9797H33.9702C33.9702 35.9797 33.9661 35.9797 33.9621 35.9797C34.2021 35.817 34.3241 35.5161 34.3241 35.0808C34.3241 34.613 34.1858 34.1411 33.9092 33.6693C33.6366 33.1933 33.295 32.8395 32.8882 32.6035L31.4523 31.7778L35.2841 29.8618L39.5879 27.71L41.0238 28.5357C41.4306 28.7717 41.7722 29.1256 42.0448 29.6015C42.3214 30.0733 42.4597 30.5452 42.4597 31.013V31.0089Z" stroke="#121212" stroke-width="0.40678" stroke-linecap="round" stroke-linejoin="round"/>
</svg>
